<?xml version="1.0" encoding="utf-8"?>
<!-- Generator: Adobe Illustrator 14.0.0, SVG Export Plug-In  -->
<!DOCTYPE svg PUBLIC "-//W3C//DTD SVG 1.1//EN" "http://www.w3.org/Graphics/SVG/1.1/DTD/svg11.dtd" [
	<!ENTITY ns_flows "http://ns.adobe.com/Flows/1.0/">
]>
<svg version="1.1"
	 xmlns="http://www.w3.org/2000/svg" xmlns:xlink="http://www.w3.org/1999/xlink" xmlns:a="http://ns.adobe.com/AdobeSVGViewerExtensions/3.0/"
	 x="0px" y="0px" width="400px" height="400px" viewBox="-111.954 -76.65 400 400" enable-background="new -111.954 -76.65 400 400"
	 xml:space="preserve">
<defs>
</defs>
<path fill-rule="evenodd" clip-rule="evenodd" d="M176,42.733l0.092,16.2H93.56c0,0-28.687,0.767-29.88,24.479H44.96
	c0,0-0.163-25.977,26.28-34.92C98.226,39.366,176,42.733,176,42.733z"/>
<path fill-rule="evenodd" clip-rule="evenodd" d="M123.976,43.733v-13.32H103.54v-14.04h52.3v14.04h-18.01v12.96L123.976,43.733z"/>
<path fill-rule="evenodd" clip-rule="evenodd" d="M14.04,246.7l68.76-0.001l17.073-144.646H84.04L68.873,237.367L28.8,237.533
	l-13.01-135.12H0"/>
<path fill-rule="evenodd" clip-rule="evenodd" d="M18.029,130.533c0,0,16.368-9.732,30.902,0c0,0,21.344-10.485,32.189,0.36
	l0.429,12.24c0,0-13.26-13.601-32.189,0c0,0-13.571-13.851-31.332,0.359l-5.579-6.12L18.029,130.533z"/>
<path fill-rule="evenodd" clip-rule="evenodd" d="M18.029,150.533c0,0,16.368-9.732,30.902,0c0,0,21.344-10.485,32.189,0.36
	l0.429,12.24c0,0-13.26-13.601-32.189,0c0,0-13.571-13.851-31.332,0.359l-5.579-6.12L18.029,150.533z"/>
<rect x="71.967" fill-rule="evenodd" clip-rule="evenodd" fill="#FFFFFF" width="34.25" height="34.75"/>
</svg>
